<svg width="36" height="36" viewBox="0 0 36 36" fill="none" xmlns="http://www.w3.org/2000/svg">
<g id="Challenge Button">
<path id="Vector 29" d="M15.3056 20.0732L12.4358 19.8123C10.908 19.6735 10.1441 19.604 9.90146 19.0814C9.65881 18.5588 10.0987 17.9304 10.9785 16.6736L18.0612 6.55544C18.6424 5.72517 18.933 5.31003 19.1836 5.39831C19.4342 5.48658 19.4005 5.9922 19.3331 7.00343L18.8799 13.8019C18.8185 14.7221 18.7879 15.1822 19.0523 15.4919C19.3167 15.8015 19.7759 15.8433 20.6944 15.9268L23.5642 16.1877C25.092 16.3265 25.8559 16.396 26.0985 16.9186C26.3412 17.4412 25.9013 18.0696 25.0215 19.3264L17.9388 29.4446C17.3576 30.2748 17.067 30.69 16.8164 30.6017C16.5658 30.5134 16.5995 30.0078 16.6669 28.9966L17.1201 22.1981C17.1815 21.2779 17.2121 20.8178 16.9477 20.5081C16.6833 20.1985 16.2241 20.1567 15.3056 20.0732Z" fill="white"/>
<path id="Vector 269" d="M27.75 6L25.5 9H28.5L26.25 12" stroke="#7E869E" stroke-opacity="0.25" stroke-linecap="round" stroke-linejoin="round"/>
<path id="Vector 270" d="M9.75 24L7.5 27H10.5L8.25 30" stroke="#7E869E" stroke-opacity="0.25" stroke-linecap="round" stroke-linejoin="round"/>
</g>
</svg>
