<svg width="53" height="53" viewBox="0 0 53 53" fill="none" xmlns="http://www.w3.org/2000/svg">
<g id="Favorite">
<path id="Vector 15" d="M9.82861 30.714L25.8154 45.7318C26.1398 46.0366 26.302 46.189 26.5 46.189C26.6981 46.189 26.8603 46.0366 27.1847 45.7318L43.1715 30.714C44.721 29.2584 45.4957 28.5306 46.026 27.7756C47.9124 25.0899 48.1873 21.5904 46.7434 18.6432C46.3375 17.8146 45.6859 16.9748 44.3827 15.2951L43.6995 14.4145C42.369 12.6997 41.7038 11.8422 41.1158 11.33C37.6014 8.26866 32.2246 8.84768 29.4426 12.5871C28.9771 13.2127 28.5097 14.1921 27.5748 16.151L27.5747 16.151C27.429 16.4564 27.3561 16.6092 27.29 16.6943C26.8896 17.2101 26.1105 17.2101 25.7101 16.6943C25.644 16.6092 25.5711 16.4564 25.4253 16.151L25.4253 16.151C24.4904 14.1921 24.023 13.2127 23.5575 12.5871C20.7755 8.84768 15.3986 8.26866 11.8843 11.33C11.2963 11.8422 10.631 12.6997 9.30053 14.4146L8.61737 15.2951C7.31416 16.9748 6.66255 17.8146 6.25665 18.6432C4.8128 21.5904 5.08771 25.0899 6.97406 27.7756C7.50435 28.5306 8.2791 29.2584 9.8286 30.7139L9.82861 30.714Z" stroke="#CCD2E3" stroke-width="2"/>
</g>
</svg>
