<svg width="37" height="28" viewBox="0 0 37 28" fill="none" xmlns="http://www.w3.org/2000/svg">
<g id="Information Button">
<path id="Vector" d="M30.1071 24H6.89286C6.65606 24 6.42895 24.1054 6.26151 24.2929C6.09407 24.4804 6 24.7348 6 25V27C6 27.2652 6.09407 27.5196 6.26151 27.7071C6.42895 27.8946 6.65606 28 6.89286 28H30.1071C30.3439 28 30.571 27.8946 30.7385 27.7071C30.9059 27.5196 31 27.2652 31 27V25C31 24.7348 30.9059 24.4804 30.7385 24.2929C30.571 24.1054 30.3439 24 30.1071 24ZM30.1071 16H6.89286C6.65606 16 6.42895 16.1054 6.26151 16.2929C6.09407 16.4804 6 16.7348 6 17V19C6 19.2652 6.09407 19.5196 6.26151 19.7071C6.42895 19.8946 6.65606 20 6.89286 20H30.1071C30.3439 20 30.571 19.8946 30.7385 19.7071C30.9059 19.5196 31 19.2652 31 19V17C31 16.7348 30.9059 16.4804 30.7385 16.2929C30.571 16.1054 30.3439 16 30.1071 16ZM30.1071 8H6.89286C6.65606 8 6.42895 8.10536 6.26151 8.29289C6.09407 8.48043 6 8.73478 6 9V11C6 11.2652 6.09407 11.5196 6.26151 11.7071C6.42895 11.8946 6.65606 12 6.89286 12H30.1071C30.3439 12 30.571 11.8946 30.7385 11.7071C30.9059 11.5196 31 11.2652 31 11V9C31 8.73478 30.9059 8.48043 30.7385 8.29289C30.571 8.10536 30.3439 8 30.1071 8ZM30.1071 0H6.89286C6.65606 0 6.42895 0.105357 6.26151 0.292893C6.09407 0.48043 6 0.734784 6 1V3C6 3.26522 6.09407 3.51957 6.26151 3.70711C6.42895 3.89464 6.65606 4 6.89286 4H30.1071C30.3439 4 30.571 3.89464 30.7385 3.70711C30.9059 3.51957 31 3.26522 31 3V1C31 0.734784 30.9059 0.48043 30.7385 0.292893C30.571 0.105357 30.3439 0 30.1071 0Z" fill="white"/>
<rect id="Rectangle 11" y="23" width="37" height="5" fill="#528265"/>
</g>
</svg>
