<svg width="53" height="53" viewBox="0 0 53 53" fill="none" xmlns="http://www.w3.org/2000/svg">
<g id="Rain">
<path id="Union" d="M35.321 11.0242L34.5226 11.6263L35.321 11.0242ZM38.8223 15.1434L39.2683 14.2484L38.8223 15.1434ZM26.5 29.7083C26.5013 29.7083 26.5027 29.7083 26.5037 29.7083C26.5048 29.7083 26.5057 29.7083 26.5066 29.7083V27.7083C26.5052 27.7083 26.5039 27.7083 26.5028 27.7083C26.5017 27.7083 26.5008 27.7083 26.5 27.7083V29.7083ZM26.4934 29.7083C26.4943 29.7083 26.4952 29.7083 26.4963 29.7083C26.4973 29.7083 26.4987 29.7083 26.5 29.7083V27.7083C26.4992 27.7083 26.4983 27.7083 26.4972 27.7083C26.4961 27.7083 26.4948 27.7083 26.4934 27.7083V29.7083ZM26.4934 27.7083H13.25V29.7083H26.4934V27.7083ZM5.625 22.0833C5.625 26.2945 9.03883 29.7083 13.25 29.7083V27.7083C10.1434 27.7083 7.625 25.1899 7.625 22.0833H5.625ZM13.25 14.4583C9.03883 14.4583 5.625 17.8722 5.625 22.0833H7.625C7.625 18.9767 10.1434 16.4583 13.25 16.4583V14.4583ZM26.5 5.625C21.6028 5.625 17.3906 8.54824 15.509 12.7407L17.3336 13.5597C18.9045 10.0595 22.419 7.625 26.5 7.625V5.625ZM36.1193 10.422C33.9233 7.51032 30.4317 5.625 26.5 5.625V7.625C29.7775 7.625 32.6882 9.19412 34.5226 11.6263L36.1193 10.422ZM42.2252 16.4583H42.375V14.4583H42.2252V16.4583ZM42.375 16.4583C44.0319 16.4583 45.375 17.8015 45.375 19.4583H47.375C47.375 16.6969 45.1364 14.4583 42.375 14.4583V16.4583ZM45.375 19.4583V24.7083H47.375V19.4583H45.375ZM45.375 24.7083C45.375 26.3652 44.0319 27.7083 42.375 27.7083V29.7083C45.1364 29.7083 47.375 27.4698 47.375 24.7083H45.375ZM42.375 27.7083H26.5066V29.7083H42.375V27.7083ZM34.5226 11.6263C35.4728 12.8862 36.2064 13.8592 36.7815 14.5543C37.07 14.9029 37.3346 15.2013 37.5802 15.4403C37.8185 15.6722 38.0833 15.8925 38.3762 16.0385L39.2683 14.2484C39.2453 14.2369 39.1535 14.1806 38.9749 14.0069C38.8037 13.8402 38.5912 13.6041 38.3224 13.2793C37.7831 12.6275 37.082 11.6984 36.1193 10.422L34.5226 11.6263ZM42.2252 14.4583C41.2864 14.4583 40.6366 14.4577 40.1406 14.4216C39.6464 14.3856 39.4109 14.3195 39.2683 14.2484L38.3762 16.0385C38.8656 16.2823 39.4078 16.3736 39.9954 16.4163C40.581 16.459 41.3167 16.4583 42.2252 16.4583V14.4583ZM13.25 16.4583C15.1741 16.4583 16.6476 15.0882 17.3336 13.5597L15.509 12.7407C15.0375 13.7912 14.1527 14.4583 13.25 14.4583V16.4583Z" fill="#CCD2E3"/>
<path id="Vector 167" d="M26.5 41.9583V37.5417" stroke="#CCD2E3" stroke-width="2" stroke-linecap="round"/>
<path id="Vector 169" d="M37.5416 44.1667V37.5417" stroke="#CCD2E3" stroke-width="2" stroke-linecap="round"/>
<path id="Vector 168" d="M15.4584 46.375V37.5417" stroke="#CCD2E3" stroke-width="2" stroke-linecap="round"/>
</g>
</svg>
