<svg width="28" height="28" viewBox="0 0 28 28" fill="none" xmlns="http://www.w3.org/2000/svg">
<g id="User_circle">
<path id="Subtract" fill-rule="evenodd" clip-rule="evenodd" d="M2.33337 14C2.33337 7.55669 7.55672 2.33334 14 2.33334C20.4434 2.33334 25.6667 7.55669 25.6667 14C25.6667 17.5803 24.0539 20.784 21.5152 22.9241C20.9957 21.5003 20.0802 20.2484 18.8701 19.3199C17.473 18.2478 15.7611 17.6667 14 17.6667C12.239 17.6667 10.5271 18.2478 9.12995 19.3198C7.91986 20.2484 7.00442 21.5003 6.48484 22.9241C3.94615 20.784 2.33337 17.5803 2.33337 14ZM19.7956 24.1138L19.7989 24.1258C18.0907 25.1061 16.1108 25.6667 14 25.6667C11.8893 25.6667 9.90939 25.1061 8.20119 24.1258L8.20449 24.1138C8.54634 22.838 9.29961 21.7106 10.3475 20.9066C11.3953 20.1025 12.6792 19.6667 14 19.6667C15.3208 19.6667 16.6047 20.1025 17.6526 20.9066C18.7005 21.7106 19.4537 22.838 19.7956 24.1138ZM11.5 10.5C11.5 9.1193 12.6193 8.00001 14 8.00001C15.3808 8.00001 16.5 9.1193 16.5 10.5C16.5 11.8807 15.3808 13 14 13C12.6193 13 11.5 11.8807 11.5 10.5ZM14 6.00001C11.5148 6.00001 9.50004 8.01473 9.50004 10.5C9.50004 12.9853 11.5148 15 14 15C16.4853 15 18.5 12.9853 18.5 10.5C18.5 8.01473 16.4853 6.00001 14 6.00001Z" fill="white"/>
<rect id="Rectangle 26" x="2.83337" y="2.83334" width="22.3333" height="22.3333" rx="11.1667" stroke="white"/>
</g>
</svg>
